<svg id="Capa_1" enable-background="new 0 0 497.634 497.634" height="512" viewBox="0 0 497.634 497.634" width="512" xmlns="http://www.w3.org/2000/svg"><g><path d="m416.255 12.867v457.437c0 7.106-5.761 12.867-12.867 12.867h-348.446c-7.106 0-12.867-5.761-12.867-12.867v-457.437c0-7.106 5.761-12.867 12.867-12.867h348.447c7.106 0 12.866 5.761 12.866 12.867z" fill="#87523e"/><path d="m416.255 12.87v457.43c0 7.11-5.76 12.87-12.87 12.87h-22.07c7.11 0 12.87-5.76 12.87-12.87v-457.43c0-7.11-5.76-12.87-12.87-12.87h22.07c7.11 0 12.87 5.76 12.87 12.87z" fill="#7c4b37"/><path d="m383.885 41.48v411.31h-298.34c-6.13 0-11.1-4.97-11.1-11.1v-400.21c0-6.13 4.97-11.1 11.1-11.1h287.24c6.131 0 11.1 4.97 11.1 11.1z" fill="#fff9df"/><path d="m383.885 41.48v411.31h-19.75v-411.31c0-6.13-4.97-11.1-11.1-11.1h19.75c6.13 0 11.1 4.97 11.1 11.1z" fill="#fff0ad"/><path d="m383.885 345.33v107.46h-298.34c-6.13 0-11.1-4.97-11.1-11.1v-96.36c16.36-12.38 34.53-21.92 53.73-28.37 7.7-2.58 15.56-4.67 23.54-6.23l77.455 6.57 77.345-6.59c27.93 5.48 54.42 17.26 77.37 34.62z" fill="#ffd15b"/><path d="m263.175 253.3v53.87l-34.06 3.54-33.95-3.54v-53.87z" fill="#ffcebf"/><path d="m263.175 253.3v53.87l-14.717 1.53-11.183-1.53v-53.87z" fill="#ffb09e"/><path d="m295.475 147.51v63.16c0 35.19-28.52 63.71-63.71 63.71h-5.2c-3.52 0-6.98-.29-10.34-.84-30.27-4.94-53.37-31.2-53.37-62.87v-63.16l66.31-3.343z" fill="#ffcebf"/><path d="m295.475 147.51v63.16c0 35.19-28.52 63.71-63.71 63.71h-5.2c-3.52 0-6.98-.29-10.34-.84 30.27-4.94 53.36-31.21 53.36-62.87v-63.16l11.22-3.343z" fill="#ffb09e"/><path d="m306.515 310.71-66.012 65.551c-6.276 6.232-16.405 6.236-22.686.009l-66.103-65.54c11.92-2.36 24.11-3.56 36.41-3.56h82.08c12.261 0 24.421 1.2 36.311 3.54z" fill="#ddeafb"/><path d="m306.515 310.71-66.009 65.548c-6.277 6.233-16.407 6.236-22.688.006l-7.143-7.085 62.42-61.99c11.28.181 22.46 1.361 33.42 3.521z" fill="#cbe2ff"/><path d="m162.858 210.672h-6.35c-12.143 0-21.987-9.844-21.987-21.987 0-12.143 9.844-21.987 21.987-21.987h6.35l3.281 21.987z" fill="#ffcebf"/><path d="m301.825 210.672h-6.35l-2.003-21.987 2.003-21.987h6.35c12.143 0 21.987 9.844 21.987 21.987 0 12.143-9.844 21.987-21.987 21.987z" fill="#ffb09e"/><path d="m295.475 124.27v23.24h-132.62v-27.23c0-10.79 8.75-19.54 19.54-19.54h17.38c10.24 0 20.19-3.39 28.3-9.64 3.66-2.82 7.73-4.99 12.05-6.46.19-.06.37-.12.56-.18 4.15-1.34 8.51-2.05 12.93-2.05 11.56 0 22.03 4.69 29.6 12.26s12.26 18.04 12.26 29.6z" fill="#87523e"/><path d="m295.475 124.27v23.24h-25.89v-23.24c0-11.56-4.68-22.03-12.26-29.6-4.61-4.61-10.29-8.15-16.64-10.21 4.15-1.34 8.51-2.05 12.93-2.05 11.56 0 22.03 4.69 29.6 12.26s12.26 18.04 12.26 29.6z" fill="#7c4b37"/><path d="m452.325 462.18h-22.88l-11.973-1.347 1.563 12.157v21.41c0 2.85-3.42 4.3-5.47 2.32l-114.95-110.84 41.29-39.82 114.66 110.57c2.09 2.02.66 5.55-2.24 5.55z" fill="#fe646f"/><path d="m339.905 385.88-114.95 110.84c-2.05 1.98-5.47.53-5.47-2.32v-21.35l1.695-12.925-12.035 2.055h-22.95c-2.9 0-4.33-3.53-2.24-5.55l114.66-110.57z" fill="#fe646f"/><g><path d="m429.445 462.18h-7.18c-1.78 0-3.23 1.45-3.23 3.23v7.58l-66.43-64.48c-2.97-2.88-3.04-7.63-.16-10.6 2.89-2.98 7.64-3.04 10.61-.16z" fill="#fd4755"/></g><g><path d="m288.055 406-68.57 67.05v-7.64c0-1.78-1.45-3.23-3.23-3.23h-7.11l68.47-66.95c2.97-2.88 7.72-2.81 10.6.16 2.89 2.98 2.81 7.73-.16 10.61z" fill="#fd4755"/></g><path d="m364.965 412.43c-15.66 15.66-37.35 21.6-57.58 17.82-12.38-2.31-24.22-8.25-33.79-17.82-25.23-25.23-25.23-66.14 0-91.37 9.57-9.58 21.41-15.52 33.79-17.82 20.23-3.78 41.92 2.16 57.58 17.82 25.23 25.23 25.23 66.14 0 91.37z" fill="#fe646f"/><path d="m364.965 412.43c-15.66 15.66-37.35 21.6-57.58 17.82 12.37-2.31 24.2-8.25 33.77-17.82 25.24-25.23 25.24-66.14 0-91.37-9.57-9.58-21.4-15.51-33.77-17.82 20.23-3.78 41.92 2.16 57.58 17.82 25.23 25.23 25.23 66.14 0 91.37z" fill="#fd4755"/><path d="m347.065 366.75c0 15.34-12.44 27.79-27.79 27.79-3.83 0-7.48-.78-10.8-2.18-9.99-4.22-16.99-14.1-16.99-25.61 0-11.52 7-21.4 16.99-25.61 3.32-1.4 6.97-2.18 10.8-2.18 15.35 0 27.79 12.44 27.79 27.79z" fill="#ffd15b"/><path d="m347.065 366.75c0 15.34-12.44 27.79-27.79 27.79-3.83 0-7.48-.78-10.8-2.18 9.99-4.22 16.99-14.1 16.99-25.61 0-11.52-7-21.4-16.99-25.61 3.32-1.4 6.97-2.18 10.8-2.18 15.35 0 27.79 12.44 27.79 27.79z" fill="#ffc344"/><g><path d="m229.166 209.412c-4.143 0-7.5-3.357-7.5-7.5v-11.335c0-4.143 3.357-7.5 7.5-7.5s7.5 3.357 7.5 7.5v11.335c0 4.143-3.358 7.5-7.5 7.5z" fill="#ffb09e"/></g><g><path d="m229.166 243.416c-7.471 0-14.656-3.156-19.715-8.66-2.803-3.05-2.603-7.795.447-10.598 3.052-2.801 7.793-2.604 10.598.447 2.258 2.457 5.337 3.811 8.67 3.811 3.74 0 7.176-1.72 9.424-4.717 2.486-3.314 7.188-3.984 10.5-1.5 3.313 2.485 3.985 7.187 1.5 10.5-5.035 6.711-13.043 10.717-21.424 10.717z" fill="#ffb09e"/></g></g></svg>