<svg id="Capa_1" enable-background="new 0 0 497.003 497.003" height="512" viewBox="0 0 497.003 497.003" width="512" xmlns="http://www.w3.org/2000/svg"><g><path d="m497 67.326v302.765c0 3.245-2.63 5.875-5.875 5.875h-485.25c-3.245 0-5.875-2.63-5.875-5.875v-302.765l260.36-11.246z" fill="#ddeafb"/><path d="m497 67.326v302.76c0 3.25-2.63 5.88-5.88 5.88h-24.03c3.25 0 5.88-2.63 5.88-5.88v-308.673z" fill="#cbe2ff"/><path d="m449.5 28.496 6 19.415-6 19.415h-449.5v-32.955c0-3.245 2.63-5.875 5.875-5.875z" fill="#0473ce"/><path d="m497 34.371v32.955h-47.5v-38.83h41.625c3.245 0 5.875 2.631 5.875 5.875z" fill="#fe646f"/><path d="m497 34.366v32.96h-24.03v-32.96c0-3.24-2.63-5.87-5.88-5.87h24.03c3.25 0 5.88 2.63 5.88 5.87z" fill="#fd4755"/><g><path d="m154.65 97.496v114c0 4.14-3.36 7.5-7.5 7.5h-114c-4.14 0-7.5-3.36-7.5-7.5v-114c0-4.14 3.36-7.5 7.5-7.5h114c4.14 0 7.5 3.36 7.5 7.5z" fill="#fff9df"/></g><g><path d="m154.65 97.496v114c0 4.14-3.36 7.5-7.5 7.5h-28.5c4.14 0 7.5-3.36 7.5-7.5v-114c0-4.14-3.36-7.5-7.5-7.5h28.5c4.14 0 7.5 3.36 7.5 7.5z" fill="#fff9df"/></g><path d="m80.306 149.33h-16.612c-2.316 0-4.194-1.878-4.194-4.194v-16.613c0-2.316 1.878-4.194 4.194-4.194h16.613c2.316 0 4.194 1.878 4.194 4.194v16.613c-.001 2.317-1.878 4.194-4.195 4.194z" fill="#0473ce"/><path d="m334.22 89.996h-147.72c-4.142 0-7.5 3.357-7.5 7.5v198.99c0 4.143 3.358 7.5 7.5 7.5h147.72c4.142 0 7.5-3.357 7.5-7.5v-198.99c0-4.142-3.358-7.5-7.5-7.5z" fill="#fff9df"/><path d="m232.777 149.33h-16.613c-2.316 0-4.194-1.878-4.194-4.194v-16.613c0-2.316 1.878-4.194 4.194-4.194h16.613c2.316 0 4.194 1.878 4.194 4.194v16.613c0 2.317-1.877 4.194-4.194 4.194z" fill="#0473ce"/><path d="m275.79 384.456-82.29 82.29c-2.347 2.347-6.153 2.347-8.5-.001l-19.912-19.919c-2.346-2.347-2.346-6.152 0-8.498l82.282-82.291 13.33 13.33z" fill="#82aee3"/><path d="m275.79 384.456-82.289 82.289c-2.348 2.348-6.154 2.347-8.501-.001l-13.372-13.376c2.22.856 4.737.323 6.42-1.359l82.652-82.643z" fill="#528fd8"/><path d="m260.7 369.356v.01l-13.33-13.33z" fill="#528fd8"/><path d="m316.06 358.596-9.3 9.29-30.97 16.56-28.41-28.41 16.56-30.97 9.3-9.3 27.73 27.73z" fill="#5a5a5a"/><path d="m316.06 358.596-9.3 9.29-30.97 16.56-15.09-15.09 30.97-16.56 9.3-9.3z" fill="#444"/><path d="m459.72 352.116c-27.93 27.92-65.6 40.16-102.06 36.7-28.45-2.69-56.16-14.92-77.94-36.7-49.71-49.71-49.71-130.3 0-180.01 21.78-21.78 49.49-34.02 77.94-36.71 36.46-3.45 74.13 8.79 102.06 36.71 49.71 49.71 49.71 130.3 0 180.01z" fill="#5a5a5a"/><path d="m459.72 352.116c-27.93 27.92-65.6 40.16-102.06 36.7 28.44-2.69 56.15-14.92 77.94-36.7 49.7-49.71 49.7-130.3 0-180.01-21.79-21.78-49.5-34.02-77.94-36.71 36.46-3.45 74.13 8.79 102.06 36.71 49.71 49.71 49.71 130.3 0 180.01z" fill="#444"/><path d="m468.98 262.106c0 54.83-44.44 99.27-99.26 99.27-3.9 0-7.76-.23-11.54-.67-49.38-5.71-87.72-47.68-87.72-98.6s38.34-92.88 87.72-98.59c3.78-.44 7.64-.67 11.54-.67 54.82 0 99.26 44.44 99.26 99.26z" fill="#82aee3"/><path d="m468.98 262.106c0 54.83-44.44 99.27-99.26 99.27-3.9 0-7.76-.23-11.54-.67 49.39-5.71 87.73-47.67 87.73-98.6 0-50.92-38.34-92.88-87.73-98.59 3.78-.44 7.64-.67 11.54-.67 54.82 0 99.26 44.44 99.26 99.26z" fill="#528fd8"/><g><g><path d="m310.109 291.927c-2.972 0-7.27-2.281-10.966-4.755-3.818-2.556-4.377-7.945-1.118-11.184 2.72-2.703 7.076-2.817 9.933-.259l.134.12c.187.173 1.643 1.306 2.254.963.439-.244.725-.779.725-1.362v-35.312c0-4.107 3.164-7.688 7.269-7.811 4.247-.128 7.731 3.277 7.731 7.497v35.626c0 6.037-3.235 11.584-8.444 14.477-2.579 1.432-5.126 2-7.518 2z" fill="#fff9df"/></g></g><g fill="#fff9df"><path d="m438.041 258.285c1.286-2.457 2.025-5.244 2.025-8.204 0-9.791-7.966-17.757-17.757-17.757h-12.948c-4.142 0-7.5 3.357-7.5 7.5v20.525.033 24.016c0 1.995.795 3.907 2.208 5.315 1.406 1.399 3.309 2.185 5.292 2.185h.033s11.897-.053 15.176-.053c10.751 0 19.498-8.747 19.498-19.498 0-5.526-2.321-10.511-6.027-14.062zm-15.732-10.962c1.52 0 2.757 1.236 2.757 2.757s-1.237 2.757-2.757 2.757c-.936 0-2.682.005-4.597.012h-.85v-5.525h5.447zm2.261 29.522c-1.463 0-4.635.011-7.709.022v-9.016c.281-.001.56-.002.835-.003h6.874c2.48 0 4.498 2.018 4.498 4.498s-2.018 4.499-4.498 4.499z"/><path d="m363.967 232.323c-16.425 0-29.787 13.362-29.787 29.787s13.362 29.787 29.787 29.787 29.787-13.362 29.787-29.787-13.362-29.787-29.787-29.787zm0 44.575c-8.154 0-14.787-6.634-14.787-14.787s6.633-14.787 14.787-14.787 14.787 6.634 14.787 14.787-6.633 14.787-14.787 14.787z"/></g><g><path d="m147.152 247.323h-113.998c-4.142 0-7.5-3.357-7.5-7.5s3.358-7.5 7.5-7.5h113.998c4.142 0 7.5 3.357 7.5 7.5s-3.358 7.5-7.5 7.5z" fill="#fff0ad"/></g><g><path d="m147.152 275.655h-113.998c-4.142 0-7.5-3.357-7.5-7.5s3.358-7.5 7.5-7.5h113.998c4.142 0 7.5 3.357 7.5 7.5s-3.358 7.5-7.5 7.5z" fill="#fff0ad"/></g><g><path d="m147.152 303.988h-113.998c-4.142 0-7.5-3.357-7.5-7.5s3.358-7.5 7.5-7.5h113.998c4.142 0 7.5 3.357 7.5 7.5s-3.358 7.5-7.5 7.5z" fill="#fff9df"/></g><g><path d="m90.153 332.32h-56.999c-4.142 0-7.5-3.357-7.5-7.5s3.358-7.5 7.5-7.5h56.999c4.142 0 7.5 3.357 7.5 7.5s-3.358 7.5-7.5 7.5z" fill="#fff9df"/></g></g></svg>