<svg id="Capa_1" enable-background="new 0 0 497 497" height="512" viewBox="0 0 497 497" width="512" xmlns="http://www.w3.org/2000/svg"><g><path d="m313.536 455.225-59.15 6.275-59.15-6.275v-202.475h118.3z" fill="#5a5a5a"/><path d="m313.536 252.75v202.47l-10.5 4.28-10.5-4.28v-202.47z" fill="#444"/><path d="m254.391 252.75v202.47l-10.297 4.28-10.298-4.28v-202.47z" fill="#444"/><path d="m254.391 455.225v41.775h62.311c9.372 0 16.97-7.598 16.97-16.97 0-4.837-2.064-9.445-5.674-12.664l-14.462-12.14h-59.145z" fill="#ddeafb"/><path d="m333.676 480.03c0 9.37-7.6 16.97-16.97 16.97h-21c9.37 0 16.97-7.6 16.97-16.98 0-2.42-.52-4.78-1.49-6.93-.96-2.16-2.38-4.12-4.19-5.73l-14.46-12.14h21l14.46 12.15c1.81 1.61 3.23 3.57 4.19 5.72.97 2.16 1.49 4.52 1.49 6.94z" fill="#cbe2ff"/><path d="m254.391 455.225v41.775h-62.311c-9.372 0-16.97-7.598-16.97-16.97 0-4.837 2.064-9.445 5.674-12.664l14.452-12.14h59.155z" fill="#ddeafb"/><path d="m233.796 455.225h20.595v41.775h-20.595z" fill="#cbe2ff"/><path d="m295.416 20.57v29.39c0 22.66-18.36 41.03-41.02 41.03h-.02c-4.7 0-9.22-.79-13.42-2.26-.2-.06-.4-.13-.59-.2-15.76-5.72-27.01-20.83-27.01-38.57v-29.39l41.03 4.263z" fill="#ffcebf"/><path d="m295.416 20.57v29.39c0 22.66-18.36 41.03-41.02 41.03h-.02c-4.7 0-9.22-.79-13.42-2.26 16.05-5.57 27.57-20.82 27.57-38.77l-.34-26.561z" fill="#ffb09e"/><path d="m295.416 20.57s-10.68 8.74-26.89 12.44c-4.35.99-9.1 1.62-14.14 1.62-23.85 0-41.03-14.06-41.03-14.06 0-11.35 9.22-20.57 20.58-20.57h40.91c11.35 0 20.57 9.22 20.57 20.57z" fill="#5a5a5a"/><path d="m268.526 33.01v-12.44c0-11.35-9.22-20.57-20.57-20.57h26.89c11.35 0 20.57 9.22 20.57 20.57 0 0-10.68 8.74-26.89 12.44z" fill="#444"/><path d="m351.566 129.02v21.3h-38.03v102.43h-118.3v-97.872c0-2.517-2.041-4.558-4.558-4.558h-33.462v-21.3c0-21.003 17.027-38.03 38.03-38.03h25.39l33.755 6.51 32.245-6.51h26.9c10.5 0 20.01 4.25 26.89 11.13 6.87 6.89 11.14 16.4 11.14 26.9z" fill="#82aee3"/><g fill="#528fd8"><path d="m159.216 116.82c.29-.88.62-1.75.99-2.6-.36.85-.69 1.72-.99 2.6z"/><path d="m311.841 150.32h1.695v102.43h-21v-83.125c0-10.662 8.643-19.305 19.305-19.305z"/><path d="m351.566 129.02v21.3h-18.12v-11.77c0-9.56-2.32-19.03-7.11-27.3-1.96-3.37-4.24-6.45-6.91-9.13-6.88-6.88-16.39-11.13-26.89-11.13h21c10.5 0 20.01 4.25 26.89 11.13 6.87 6.89 11.14 16.4 11.14 26.9z"/></g><path d="m351.566 150.32v125.5c0 10.5-8.52 19.01-19.02 19.01-3.28 0-6.36-.83-9.05-2.3 0 .01-.01 0-.01 0-5.93-3.21-9.95-9.49-9.95-16.71v-125.5z" fill="#ffcebf"/><path d="m351.566 150.32v124.984c0 10.311-7.994 19.132-18.298 19.513-3.55.131-6.886-.709-9.772-2.287 5.93-3.21 9.95-9.49 9.95-16.71v-125.5z" fill="#ffb09e"/><path d="m451.476 73.97-9.18 57.82c-.68 4.3-5.32 6.66-9.24 4.77-10.43-5.04-23.35-3.23-32 5.42-8.544 8.544-10.42 21.234-5.63 31.598.318.688.19 1.498-.356 2.024l-.099.095c-.526.507-1.305.615-1.967.308-10.362-4.8-23.05-2.922-31.588 5.615-8.286 8.286-10.3 20.479-6.035 30.657.283.675.145 1.45-.382 1.958l-.673.647c-.508.489-1.255.608-1.905.336-10.185-4.254-22.365-2.237-30.644 6.042-9.43 9.43-10.74 23.9-3.93 34.72 1.99 3.17 1.52 7.31-1.13 9.96l-42.08 42.09c-7.53 7.53-7.53 19.74 0 27.27 5.39 5.39 8.42 12.7 8.42 20.31v.08l-.03 17.15c-.02 7.61-3.05 14.9-8.43 20.27l-62.26 62.26c-17.04 17.04-41.93 21.44-63.03 13.21-7.36-2.86-14.27-7.27-20.21-13.21l-66.41-66.41c-22.99-22.99-22.99-60.26 0-83.24l62.25-62.26c5.38-5.38 12.67-8.41 20.28-8.43l17.15-.03c7.64-.02 14.98 3.01 20.39 8.42 3.77 3.76 8.7 5.65 13.63 5.65 4.94 0 9.88-1.89 13.64-5.65l164.57-164.56c.96-.96 2.2-1.6 3.55-1.81l45.1-7.16 6.61-1.05 14.23-2.26c4.329-.68 8.069 3.06 7.389 7.39z" fill="#ddeafb"/><path d="m444.086 66.58-14.23 2.26-6.92 43.59c-.68 4.3-5.32 6.66-9.24 4.77-10.43-5.04-23.35-3.23-32 5.42-8.672 8.672-10.471 21.607-5.412 32.048.313.646.197 1.416-.32 1.914-.5.482-1.243.58-1.868.277-10.441-5.06-23.376-3.263-32.04 5.402-8.408 8.408-10.353 20.824-5.847 31.089.278.634.153 1.37-.346 1.85l-.572.55c-.481.463-1.191.571-1.803.303-10.267-4.495-22.675-2.551-31.073 5.847-9.43 9.43-10.74 23.9-3.93 34.72 1.99 3.17 1.52 7.31-1.13 9.96l-42.08 42.09c-7.53 7.53-7.53 19.74 0 27.27 5.39 5.39 8.42 12.7 8.42 20.31v.08l-.03 17.15c-.02 7.61-3.05 14.9-8.43 20.27l-62.26 62.26c-17.04 17.04-41.93 21.44-63.03 13.21-7.36-2.86-14.27-7.27-20.21-13.21l19.36 19.36c5.94 5.94 12.85 10.35 20.21 13.21 21.1 8.23 45.99 3.83 63.03-13.21l62.26-62.26c5.38-5.37 8.41-12.66 8.43-20.27l.03-17.15v-.08c0-7.61-3.03-14.92-8.42-20.31-7.53-7.53-7.53-19.74 0-27.27l42.08-42.09c2.65-2.65 3.12-6.79 1.13-9.96-6.81-10.82-5.5-25.29 3.93-34.72 8.279-8.279 20.459-10.296 30.644-6.042.651.272 1.397.153 1.905-.336l.673-.647c.527-.507.665-1.283.382-1.958-4.265-10.178-2.25-22.371 6.035-30.657 8.538-8.538 21.228-10.416 31.59-5.614.662.307 1.441.198 1.966-.309l.099-.096c.545-.526.673-1.337.355-2.025-4.79-10.364-2.913-23.054 5.63-31.597 8.65-8.65 21.57-10.46 32-5.42 3.92 1.89 8.56-.47 9.24-4.77l9.18-57.82c.682-4.329-3.058-8.069-7.388-7.389z" fill="#cbe2ff"/><path d="m178.47 413.337-73.747-73.747c-1.745-1.745-4.575-1.745-6.321 0l-13.56 13.56c-1.745 1.745-1.745 4.575 0 6.321l73.747 73.747c1.745 1.745 4.575 1.745 6.321 0l13.56-13.56c1.745-1.746 1.745-4.576 0-6.321z" fill="#82aee3"/><path d="m178.466 419.66-13.56 13.56c-1.74 1.74-4.57 1.74-6.32 0l-12.37-12.38c1.74 1.75 4.57 1.75 6.32 0l13.56-13.56c1.71-1.71 1.74-4.48.09-6.23l12.28 12.29c1.75 1.74 1.75 4.57 0 6.32z" fill="#528fd8"/><path d="m195.236 154.878v120.484c0 10.199-7.845 18.929-18.032 19.443-3.825.193-7.427-.754-10.478-2.525-5.69-3.28-9.51-9.42-9.51-16.46v-125.5h33.462c2.517 0 4.558 2.041 4.558 4.558z" fill="#ffcebf"/><path d="m195.236 154.878v120.484c0 10.199-7.845 18.929-18.032 19.443-3.825.193-7.427-.754-10.478-2.525 5.68-3.28 9.5-9.43 9.5-16.46v-125.5h14.452c2.517 0 4.558 2.041 4.558 4.558z" fill="#ffb09e"/><path d="m286.636 90.99-18.41 19.32c-6.17 6.48-15.69 7.78-23.22 3.84-1.72-.9-3.34-2.07-4.79-3.52l-19.58-19.64z" fill="#ffcebf"/><path d="m286.636 90.99-18.41 19.32c-6.17 6.48-15.69 7.78-23.22 3.84 1.85-.96 3.58-2.24 5.11-3.84l18.41-19.32z" fill="#ffb09e"/></g></svg>