<svg id="Capa_1" enable-background="new 0 0 497 497" height="512" viewBox="0 0 497 497" width="512" xmlns="http://www.w3.org/2000/svg"><g><path d="m373.25 40.5v395.82h-328.04c-4.479 0-8.11-3.631-8.11-8.11v-387.71l168.075-9.667z" fill="#ddeafb"/><path d="m373.25 40.5v395.82h-29.9v-395.82l14.95-8.912z" fill="#cbe2ff"/><path d="m167.49 263.44h75.51v49.14h-75.51z" fill="#ffcebf"/><path d="m220 263.44h23v49.14h-23z" fill="#ffb09e"/><path d="m373.25 398.16v38.16h-328.04c-4.479 0-8.11-3.631-8.11-8.11v-29.98c0-21.47 7.71-42.23 21.73-58.49l.07-.07c17.01-19.74 41.78-31.09 67.84-31.09h3.49 150.03 3.42c26.1 0 50.91 11.39 67.93 31.18 6.98 8.13 12.4 17.37 16.06 27.26s5.58 20.43 5.58 31.14z" fill="#0473ce"/><path d="m373.25 398.16v38.16h-23.12v-38.16c0-10.71-1.92-21.25-5.58-31.14s-9.08-19.13-16.06-27.26c-12.68-14.74-33.017-25.58-51.657-29.76 0 0 3.427-.69 3.427-1.42h3.42c26.1 0 50.91 11.39 67.93 31.18 6.98 8.13 12.4 17.37 16.06 27.26s5.58 20.43 5.58 31.14z" fill="#0067c5"/><path d="m280.25 114.72v92.63c0 41.47-33.61 75.08-75.07 75.08-4.15 0-8.23-.33-12.19-.99-.1-.02-.19-.03-.29-.05-35.53-5.94-62.6-36.82-62.6-74.04v-92.63z" fill="#ffcebf"/><path d="m282.047 207.351h-1.797l-4.5-27.601 4.5-24.904h1.797c14.499 0 26.253 11.754 26.253 26.253-.001 14.498-11.755 26.252-26.253 26.252z" fill="#ffb09e"/><path d="m280.25 114.72v92.63c0 41.47-33.61 75.08-75.07 75.08-4.15 0-8.23-.33-12.19-.99-.1-.02-.19-.03-.29-.05 35.5-5.96 62.55-36.84 62.55-74.04v-92.63z" fill="#ffb09e"/><path d="m294.28 118.01v18.84c0 11.225-9.022 20.45-20.247 20.519-4.667.029-9.171-.683-13.373-2.049-.85-.27-1.69-.57-2.52-.91-12.036-4.735-21.394-14.782-25.184-27.269-.249-.819-.986-1.391-1.842-1.391-.855 0-1.592.571-1.841 1.389-5.316 17.499-21.569 30.231-40.804 30.231h-48.51c-11.333 0-20.52-9.187-20.52-20.52v-18.84c0-20.125 16.315-36.44 36.44-36.44h101.95c20.131 0 36.451 16.32 36.451 36.44z" fill="#5a5a5a"/><path d="m294.28 118.01v18.84c0 11.33-9.19 20.52-20.52 20.52-4.57 0-8.98-.71-13.1-2.05-.85-.27-1.69-.57-2.52-.91 5.93-3.6 9.89-10.12 9.89-17.56v-18.84c0-20.12-16.32-36.44-36.45-36.44h26.25c20.13 0 36.45 16.32 36.45 36.44z" fill="#444"/><path d="m128.31 207.351h1.786l4.904-26.253-4.904-26.253h-1.786c-14.499 0-26.253 11.754-26.253 26.253 0 14.499 11.754 26.253 26.253 26.253z" fill="#ffcebf"/><path d="m212.68 308.58v90.392c0 5.823-3.36 10.548-7.5 10.548-4.15 0-7.5-4.726-7.5-10.548v-90.392z" fill="#0067c5"/><path d="m459.9 404.31v75.9c0 9.27-7.52 16.79-16.79 16.79h-325.71c-9.28 0-16.8-7.52-16.8-16.79v-75.9c0-9.28 7.52-16.79 16.8-16.79h325.71c9.27 0 16.79 7.51 16.79 16.79z" fill="#528fd8"/><path d="m459.9 404.31v75.9c0 9.27-7.52 16.79-16.79 16.79h-23c9.27 0 16.79-7.52 16.79-16.79v-75.9c0-9.28-7.52-16.79-16.79-16.79h23c9.27 0 16.79 7.51 16.79 16.79z" fill="#0473ce"/><g fill="#ffc344"><path d="m154.959 463.358-11.344 5.964c-3.043 1.6-6.6-.984-6.019-4.373l2.166-12.632c.231-1.346-.215-2.719-1.193-3.672l-9.177-8.946c-2.462-2.4-1.103-6.581 2.299-7.076l12.683-1.843c1.351-.196 2.519-1.045 3.123-2.269l5.672-11.493c1.522-3.083 5.918-3.083 7.44 0l5.672 11.493c.604 1.224 1.772 2.073 3.123 2.269l12.683 1.843c3.402.494 4.761 4.676 2.299 7.076l-9.177 8.946c-.978.953-1.424 2.326-1.193 3.672l2.166 12.632c.581 3.389-2.976 5.973-6.019 4.373l-11.344-5.964c-1.208-.635-2.651-.635-3.86 0z"/><path d="m237.201 463.358-11.344 5.964c-3.043 1.6-6.6-.984-6.019-4.373l2.166-12.632c.231-1.346-.215-2.719-1.193-3.672l-9.177-8.946c-2.462-2.4-1.103-6.581 2.299-7.076l12.683-1.843c1.351-.196 2.519-1.045 3.123-2.269l5.672-11.493c1.522-3.083 5.918-3.083 7.44 0l5.672 11.493c.604 1.224 1.772 2.073 3.123 2.269l12.683 1.843c3.402.494 4.761 4.676 2.299 7.076l-9.177 8.946c-.978.953-1.424 2.326-1.193 3.672l2.166 12.632c.581 3.389-2.976 5.973-6.019 4.373l-11.344-5.964c-1.208-.635-2.652-.635-3.86 0z"/><path d="m319.443 463.358-11.344 5.964c-3.043 1.6-6.6-.984-6.019-4.373l2.166-12.632c.231-1.346-.215-2.719-1.193-3.672l-9.177-8.946c-2.462-2.4-1.103-6.581 2.299-7.076l12.683-1.843c1.351-.196 2.519-1.045 3.123-2.269l5.672-11.493c1.522-3.083 5.918-3.083 7.44 0l5.672 11.493c.604 1.224 1.772 2.073 3.123 2.269l12.683 1.843c3.402.494 4.761 4.676 2.299 7.076l-9.177 8.946c-.978.953-1.424 2.326-1.193 3.672l2.166 12.632c.581 3.389-2.976 5.973-6.019 4.373l-11.344-5.964c-1.208-.635-2.652-.635-3.86 0z"/><path d="m401.684 463.358-11.344 5.964c-3.043 1.6-6.6-.984-6.019-4.373l2.167-12.632c.231-1.346-.215-2.719-1.193-3.672l-9.177-8.946c-2.462-2.4-1.103-6.581 2.299-7.076l12.683-1.843c1.351-.196 2.519-1.045 3.123-2.269l5.672-11.493c1.522-3.083 5.918-3.083 7.44 0l5.672 11.493c.604 1.224 1.772 2.073 3.123 2.269l12.683 1.843c3.402.494 4.761 4.676 2.299 7.076l-9.177 8.946c-.978.953-1.424 2.326-1.193 3.672l2.167 12.632c.581 3.389-2.976 5.973-6.019 4.373l-11.344-5.964c-1.21-.635-2.653-.635-3.862 0z"/></g><path d="m326.167 0v40.5h-289.067v-32.39c0-4.479 3.631-8.11 8.11-8.11z" fill="#0473ce"/><path d="m373.25 8.11v32.39h-47.08v-40.5h38.97c4.479 0 8.11 3.631 8.11 8.11z" fill="#fe646f"/><path d="m373.25 8.11v32.39h-29.9v-32.39c0-4.48-3.63-8.11-8.11-8.11h29.9c4.48 0 8.11 3.63 8.11 8.11z" fill="#fd4755"/><g><path d="m205.246 218.386c-4.142 0-7.5-3.357-7.5-7.5v-20.326c0-4.143 3.358-7.5 7.5-7.5s7.5 3.357 7.5 7.5v20.326c0 4.142-3.358 7.5-7.5 7.5z" fill="#ffb09e"/></g><g><path d="m205.176 250.49c-9.61 0-18.76-3.618-25.766-10.188-3.021-2.834-3.173-7.58-.339-10.602s7.581-3.173 10.601-.34c4.214 3.953 9.72 6.13 15.504 6.13 6.055 0 11.748-2.358 16.031-6.64 2.929-2.929 7.678-2.928 10.606.001 2.929 2.929 2.928 7.678-.001 10.606-7.115 7.115-16.575 11.033-26.636 11.033z" fill="#ffb09e"/></g></g></svg>